HIERARCHY
ROOT Hips
{
	OFFSET 0.000000 83.214638 0.000000
	CHANNELS 6 Xposition Yposition Zposition Xrotation Yrotation Zrotation
	JOINT Pelvis
	{
		OFFSET 0.000000 0.000000 0.000000
		CHANNELS 3 Xrotation Yrotation Zrotation
		JOINT LeftUpLeg
		{
			OFFSET 8.479700 -4.795502 -0.379100
			CHANNELS 3 Xrotation Yrotation Zrotation
			JOINT LeftLeg
			{
				OFFSET 0.024144 -32.555107 0.112900
				CHANNELS 3 Xrotation Yrotation Zrotation
				JOINT LeftFoot
				{
					OFFSET -0.024144 -32.638630 -3.012600
					CHANNELS 3 Xrotation Yrotation Zrotation
					JOINT LeftToeBase
					{
						OFFSET 0.970200 -13.225400 11.864200
						CHANNELS 3 Xrotation Yrotation Zrotation
						End Site
						{
							OFFSET 0.000000 12.319262 0.000000
						}
					}
					JOINT LFootTongue
					{
						OFFSET 1.142400 -1.059800 6.665200
						CHANNELS 3 Xrotation Yrotation Zrotation
						End Site
						{
							OFFSET 0.000000 12.319262 0.000000
						}
					}
				}
				JOINT LeftPantLeg
				{
					OFFSET 0.918482 -16.533964 -2.284700
					CHANNELS 3 Xrotation Yrotation Zrotation
					End Site
					{
						OFFSET 0.350399 24.744368 0.000000
					}
				}
			}
		}
		JOINT RightUpLeg
		{
			OFFSET -8.479700 -4.795502 -0.379100
			CHANNELS 3 Xrotation Yrotation Zrotation
			JOINT RightLeg
			{
				OFFSET -0.023144 -32.555092 0.112900
				CHANNELS 3 Xrotation Yrotation Zrotation
				JOINT RightFoot
				{
					OFFSET 0.023144 -32.638641 -3.012700
					CHANNELS 3 Xrotation Yrotation Zrotation
					JOINT RightToeBase
					{
						OFFSET -0.970200 -13.225400 11.864200
						CHANNELS 3 Xrotation Yrotation Zrotation
						End Site
						{
							OFFSET 0.000000 12.319244 0.000000
						}
					}
					JOINT RFootTongue
					{
						OFFSET -1.142200 -1.059800 6.665200
						CHANNELS 3 Xrotation Yrotation Zrotation
						End Site
						{
							OFFSET 0.000000 12.319243 0.000000
						}
					}
				}
				JOINT RightPantLeg
				{
					OFFSET -0.919482 -16.533978 -2.284800
					CHANNELS 3 Xrotation Yrotation Zrotation
					End Site
					{
						OFFSET -0.350400 24.744419 0.000000
					}
				}
			}
		}
	}
	JOINT Spine
	{
		OFFSET 0.000000 7.722000 1.166200
		CHANNELS 3 Xrotation Yrotation Zrotation
		JOINT Spine1
		{
			OFFSET 0.000000 12.024101 0.248800
			CHANNELS 3 Xrotation Yrotation Zrotation
			JOINT Spine2
			{
				OFFSET 0.000000 11.502998 -0.491200
				CHANNELS 3 Xrotation Yrotation Zrotation
				JOINT Neck
				{
					OFFSET 0.000000 18.430702 -3.123100
					CHANNELS 3 Xrotation Yrotation Zrotation
					JOINT Head
					{
						OFFSET 0.000000 9.051102 1.034000
						CHANNELS 3 Xrotation Yrotation Zrotation
						JOINT HairB
						{
							OFFSET 0.208400 24.786102 24.822300
							CHANNELS 3 Xrotation Yrotation Zrotation
							End Site
							{
								OFFSET 0.000000 32.263779 0.000000
							}
						}
						JOINT HairA
						{
							OFFSET -7.081100 24.428299 23.196600
							CHANNELS 3 Xrotation Yrotation Zrotation
							End Site
							{
								OFFSET 0.000000 32.263779 0.000000
							}
						}
						JOINT Hat
						{
							OFFSET 16.728800 15.048294 -15.439601
							CHANNELS 3 Xrotation Yrotation Zrotation
							End Site
							{
								OFFSET 0.000000 32.263779 0.000000
							}
						}
					}
				}
				JOINT LeftShoulder
				{
					OFFSET 6.197800 13.665199 -4.064700
					CHANNELS 3 Xrotation Yrotation Zrotation
					JOINT LeftArm
					{
						OFFSET 7.778100 -0.187103 -1.709300
						CHANNELS 3 Xrotation Yrotation Zrotation
						JOINT LeftForeArm
						{
							OFFSET 22.049376 0.000000 0.000000
							CHANNELS 3 Xrotation Yrotation Zrotation
							JOINT LeftHand
							{
								OFFSET 23.009392 0.000000 0.000000
								CHANNELS 3 Xrotation Yrotation Zrotation
								JOINT LeftHandThumb1
								{
									OFFSET 3.507191 -2.063065 3.133727
									CHANNELS 3 Xrotation Yrotation Zrotation
									JOINT LeftHandThumb2
									{
										OFFSET 3.101337 -1.790558 1.790558
										CHANNELS 3 Xrotation Yrotation Zrotation
										JOINT LeftHandThumb3
										{
											OFFSET 3.058640 -1.765907 1.765906
											CHANNELS 3 Xrotation Yrotation Zrotation
											End Site
											{
												OFFSET -0.415260 3.926476 -0.049563
											}
										}
									}
								}
								JOINT LeftHandIndex1
								{
									OFFSET 11.334419 -0.901459 3.706815
									CHANNELS 3 Xrotation Yrotation Zrotation
									JOINT LeftHandIndex2
									{
										OFFSET 3.283112 0.000000 0.000000
										CHANNELS 3 Xrotation Yrotation Zrotation
										JOINT LeftHandIndex3
										{
											OFFSET 3.323853 0.000000 0.000000
											CHANNELS 3 Xrotation Yrotation Zrotation
											End Site
											{
												OFFSET -1.135597 3.097809 0.402452
											}
										}
									}
								}
								JOINT LeftHandMiddle1
								{
									OFFSET 11.335861 0.000000 0.000000
									CHANNELS 3 Xrotation Yrotation Zrotation
									JOINT LeftHandMiddle2
									{
										OFFSET 3.410492 0.000000 0.000000
										CHANNELS 3 Xrotation Yrotation Zrotation
										JOINT LeftHandMiddle3
										{
											OFFSET 3.312172 0.000000 0.000000
											CHANNELS 3 Xrotation Yrotation Zrotation
											End Site
											{
												OFFSET -1.150200 3.080154 0.400270
											}
										}
									}
								}
								JOINT LeftHandRing1
								{
									OFFSET 11.514786 -0.013176 -3.003090
									CHANNELS 3 Xrotation Yrotation Zrotation
									JOINT LeftHandRing2
									{
										OFFSET 3.053307 0.000000 0.000000
										CHANNELS 3 Xrotation Yrotation Zrotation
										JOINT LeftHandRing3
										{
											OFFSET 3.295807 0.000000 0.000000
											CHANNELS 3 Xrotation Yrotation Zrotation
											End Site
											{
												OFFSET -1.281006 3.013344 0.375733
											}
										}
									}
								}
								JOINT LeftHandPinky1
								{
									OFFSET 10.518692 -0.960396 -5.730441
									CHANNELS 3 Xrotation Yrotation Zrotation
									JOINT LeftHandPinky2
									{
										OFFSET 2.861649 0.000000 0.000000
										CHANNELS 3 Xrotation Yrotation Zrotation
										JOINT LeftHandPinky3
										{
											OFFSET 2.863380 0.000000 0.000000
											CHANNELS 3 Xrotation Yrotation Zrotation
											End Site
											{
												OFFSET -0.843597 2.711159 0.369971
											}
										}
									}
								}
							}
							JOINT LSleeve
							{
								OFFSET 6.676277 -0.344902 -1.011730
								CHANNELS 3 Xrotation Yrotation Zrotation
								End Site
								{
									OFFSET 0.000000 14.885353 0.000000
								}
							}
						}
					}
				}
				JOINT RightShoulder
				{
					OFFSET -6.197800 13.665199 -4.064700
					CHANNELS 3 Xrotation Yrotation Zrotation
					JOINT RightArm
					{
						OFFSET -7.778100 -0.187103 -1.709300
						CHANNELS 3 Xrotation Yrotation Zrotation
						JOINT RightForeArm
						{
							OFFSET -22.049376 0.000000 0.000000
							CHANNELS 3 Xrotation Yrotation Zrotation
							JOINT RightHand
							{
								OFFSET -23.009392 0.000000 0.000000
								CHANNELS 3 Xrotation Yrotation Zrotation
								JOINT RightHandThumb1
								{
									OFFSET -3.507191 -2.063065 3.133727
									CHANNELS 3 Xrotation Yrotation Zrotation
									JOINT RightHandThumb2
									{
										OFFSET -3.101337 -1.790558 1.790558
										CHANNELS 3 Xrotation Yrotation Zrotation
										JOINT RightHandThumb3
										{
											OFFSET -3.058640 -1.765907 1.765906
											CHANNELS 3 Xrotation Yrotation Zrotation
											End Site
											{
												OFFSET 0.415260 3.926476 -0.049563
											}
										}
									}
								}
								JOINT RightHandIndex1
								{
									OFFSET -11.334419 -0.901459 3.706815
									CHANNELS 3 Xrotation Yrotation Zrotation
									JOINT RightHandIndex2
									{
										OFFSET -3.283112 0.000000 0.000000
										CHANNELS 3 Xrotation Yrotation Zrotation
										JOINT RightHandIndex3
										{
											OFFSET -3.323853 0.000000 0.000000
											CHANNELS 3 Xrotation Yrotation Zrotation
											End Site
											{
												OFFSET 1.135597 3.097809 0.402452
											}
										}
									}
								}
								JOINT RightHandMiddle1
								{
									OFFSET -11.335861 0.000000 0.000000
									CHANNELS 3 Xrotation Yrotation Zrotation
									JOINT RightHandMiddle2
									{
										OFFSET -3.410492 0.000000 0.000000
										CHANNELS 3 Xrotation Yrotation Zrotation
										JOINT RightHandMiddle3
										{
											OFFSET -3.312172 0.000000 0.000000
											CHANNELS 3 Xrotation Yrotation Zrotation
											End Site
											{
												OFFSET 1.150200 3.080154 0.400270
											}
										}
									}
								}
								JOINT RightHandRing1
								{
									OFFSET -11.514786 -0.013176 -3.003090
									CHANNELS 3 Xrotation Yrotation Zrotation
									JOINT RightHandRing2
									{
										OFFSET -3.053307 0.000000 0.000000
										CHANNELS 3 Xrotation Yrotation Zrotation
										JOINT RightHandRing3
										{
											OFFSET -3.295807 0.000000 0.000000
											CHANNELS 3 Xrotation Yrotation Zrotation
											End Site
											{
												OFFSET 1.281006 3.013344 0.375733
											}
										}
									}
								}
								JOINT RightHandPinky1
								{
									OFFSET -10.518692 -0.960396 -5.730441
									CHANNELS 3 Xrotation Yrotation Zrotation
									JOINT RightHandPinky2
									{
										OFFSET -2.861649 0.000000 0.000000
										CHANNELS 3 Xrotation Yrotation Zrotation
										JOINT RightHandPinky3
										{
											OFFSET -2.863380 0.000000 0.000000
											CHANNELS 3 Xrotation Yrotation Zrotation
											End Site
											{
												OFFSET 0.843597 2.711159 0.369971
											}
										}
									}
								}
							}
							JOINT RSleeve
							{
								OFFSET -6.676277 -0.344902 -1.011730
								CHANNELS 3 Xrotation Yrotation Zrotation
								End Site
								{
									OFFSET 0.000000 14.885353 0.000000
								}
							}
						}
					}
				}
				JOINT Backpack
				{
					OFFSET 0.000000 -2.471497 36.677502
					CHANNELS 3 Xrotation Yrotation Zrotation
					End Site
					{
						OFFSET 0.000000 20.427315 0.000000
					}
				}
				JOINT Hood
				{
					OFFSET 0.000000 18.754097 -10.431000
					CHANNELS 3 Xrotation Yrotation Zrotation
					JOINT Hood1
					{
						OFFSET 0.000000 -5.011002 -7.685901
						CHANNELS 3 Xrotation Yrotation Zrotation
						End Site
						{
							OFFSET 0.000000 9.175140 0.000000
						}
					}
				}
				JOINT LHoodieString
				{
					OFFSET 5.250500 16.397697 3.089900
					CHANNELS 3 Xrotation Yrotation Zrotation
					JOINT LHoodieString1
					{
						OFFSET 0.257700 -6.364304 3.694600
						CHANNELS 3 Xrotation Yrotation Zrotation
						JOINT LHoodieString2
						{
							OFFSET 0.000000 -9.643799 2.679100
							CHANNELS 3 Xrotation Yrotation Zrotation
							End Site
							{
								OFFSET 0.000000 10.009018 0.000000
							}
						}
					}
				}
				JOINT RHoodieString
				{
					OFFSET -5.250500 16.397697 3.089900
					CHANNELS 3 Xrotation Yrotation Zrotation
					JOINT RHoodieString1
					{
						OFFSET -0.257700 -6.364304 3.694600
						CHANNELS 3 Xrotation Yrotation Zrotation
						JOINT RHoodieString2
						{
							OFFSET 0.000000 -9.643799 2.679100
							CHANNELS 3 Xrotation Yrotation Zrotation
							End Site
							{
								OFFSET 0.000000 10.009018 0.000000
							}
						}
					}
				}
			}
			JOINT LBackpack_Strap
			{
				OFFSET 15.223200 -7.719803 -6.610900
				CHANNELS 3 Xrotation Yrotation Zrotation
				End Site
				{
					OFFSET 0.000000 16.040596 0.000000
				}
			}
			JOINT RBackpack_Strap
			{
				OFFSET -15.223000 -7.719803 -6.610900
				CHANNELS 3 Xrotation Yrotation Zrotation
				End Site
				{
					OFFSET 0.000000 16.040596 0.000000
				}
			}
		}
	}
	JOINT BoyFacialAnim_Joint
	{
		OFFSET 1.000000 -82.208099 -1.550900
		CHANNELS 3 Xrotation Yrotation Zrotation
		End Site
		{
			OFFSET 0.000000 30.012791 0.000000
		}
	}
}
MOTION
Frames: 4
Frame Time: 0.033333
12.193338 77.061066 -0.228028 6.987977 -53.685813 3.877928 0.000000 0.000002 -0.000000 -31.418754 -0.062062 20.273058 24.918422 4.335057 0.722870 7.890849 10.064832 -16.898924 0.000000 -0.000000 0.000000 0.000000 -0.000000 0.000000 0.000001 -0.000001 0.000000 -4.440777 -7.460861 -14.750374 19.688579 -9.753484 -3.255277 -8.589034 -18.277883 23.807758 0.000000 0.000000 0.000000 0.000000 0.000000 0.000000 -0.000001 0.000001 0.000001 2.441445 2.158835 -0.856921 1.794140 3.187654 -0.197148 1.744334 3.229460 -0.299982 3.836958 3.520552 1.725392 -9.013214 24.309009 -11.774295 -0.000000 0.000000 0.000001 -0.000000 0.000000 0.000001 -0.000000 0.000000 0.000001 0.397294 0.106432 -3.469946 -25.687146 6.885303 -46.541452 0.000238 -100.151187 0.000252 6.201878 -15.732951 26.177726 1.414170 12.315591 -0.111035 -0.966482 24.316802 1.395944 -0.000002 0.000001 -0.000000 6.781443 6.908487 -83.985509 6.728827 6.879518 -88.728187 -0.000003 0.000003 -0.000003 5.692840 6.778321 -80.117211 7.476706 6.855501 -94.976472 0.000002 0.000002 -0.000001 5.344474 6.757519 -83.942438 8.136877 6.766201 -100.539073 -0.000002 0.000003 -0.000003 8.174540 7.083495 -83.174383 8.017701 2.700492 -99.510699 -0.000001 -0.000000 0.000001 0.000000 0.000004 0.000004 0.541202 1.043476 7.131695 26.722543 32.868434 37.312487 -0.000011 109.411427 -0.000020 11.023693 1.252780 -31.235128 -3.732722 -8.846178 6.490548 17.294816 -25.325375 -0.358853 -0.000002 0.000004 0.000002 7.105278 -6.974278 86.153930 6.794395 -6.946568 88.728010 -0.000003 0.000001 0.000002 6.699183 -6.943823 88.026064 8.101378 -6.852336 99.576085 0.000001 0.000006 -0.000003 5.894436 -6.916527 88.045264 8.096894 -6.853087 99.538703 0.000002 -0.000001 0.000002 4.179036 -6.668986 83.200611 8.100986 -6.852431 99.572683 -0.000002 -0.000001 -0.000000 -0.000002 -0.000001 0.000000 -0.000000 -0.000002 0.000001 -0.000000 -0.000002 0.000001 -0.000000 -0.000002 0.000001 -0.000000 -0.000002 0.000001 -0.000000 -0.000002 0.000001 -0.000000 -0.000002 0.000001 -0.000000 -0.000002 0.000001 -0.000000 -0.000002 0.000001 -0.000000 -0.000002 0.000001 -0.000000 0.000003 -0.000000 -0.000000 0.000003 -0.000000 0.000000 0.000002 -0.000000 
12.222750 77.073334 -0.243394 6.980663 -53.529139 3.862411 -0.000000 -0.000001 -0.000000 -31.484075 0.028455 20.214189 24.773970 4.285463 0.781502 7.988027 9.886914 -16.838158 -0.000000 0.000000 0.000000 -0.000000 0.000000 0.000000 -0.000000 -0.000002 -0.000002 -4.367650 -7.514384 -14.739569 19.588438 -9.860891 -3.224745 -8.447355 -18.466958 23.832441 0.000000 -0.000000 0.000000 0.000000 -0.000000 0.000000 0.000001 0.000000 -0.000001 2.443219 2.166669 -0.846454 1.807402 3.199156 -0.201664 1.758536 3.240510 -0.304123 3.847583 3.518220 1.683317 -9.122822 24.278893 -11.792110 -0.000001 0.000002 0.000001 -0.000001 0.000002 0.000001 -0.000001 0.000002 0.000001 0.398380 0.103366 -3.496869 -25.722808 6.801593 -46.518608 0.000528 -100.149561 0.000504 6.203316 -15.696714 26.180863 1.414173 12.315602 -0.111011 -0.966475 24.316793 1.395918 0.000000 -0.000001 0.000001 6.781438 6.908493 -83.985529 6.728840 6.879527 -88.728167 0.000001 -0.000002 -0.000004 5.692844 6.778307 -80.117211 7.476700 6.855495 -94.976512 0.000002 0.000005 0.000001 5.344472 6.757516 -83.942472 8.136867 6.766198 -100.539087 -0.000001 0.000000 0.000001 8.174545 7.083498 -83.174403 8.017690 2.700487 -99.510713 -0.000000 -0.000001 -0.000004 -0.000000 0.000005 0.000004 0.540710 1.063306 7.101584 26.520067 32.939584 37.416924 -0.000001 109.316228 -0.000001 11.107219 1.075733 -31.202408 -3.732726 -8.846164 6.490556 17.294840 -25.325394 -0.358851 0.000004 0.000002 0.000003 7.105279 -6.974248 86.153943 6.794371 -6.946541 88.728003 -0.000003 -0.000002 0.000002 6.699192 -6.943803 88.026064 8.101379 -6.852352 99.576092 0.000004 -0.000001 -0.000002 5.894451 -6.916531 88.045264 8.096918 -6.853090 99.538703 0.000003 -0.000002 0.000000 4.179034 -6.668966 83.200631 8.100974 -6.852437 99.572670 -0.000002 0.000001 -0.000001 -0.000002 -0.000000 -0.000001 0.000000 0.000000 -0.000000 0.000000 0.000000 -0.000000 0.000000 0.000000 -0.000000 0.000000 0.000000 -0.000000 0.000000 0.000000 -0.000000 -0.000000 0.000000 0.000000 0.000000 0.000000 -0.000000 0.000000 0.000000 -0.000000 -0.000000 0.000000 0.000000 -0.000000 -0.000001 0.000000 -0.000000 -0.000001 0.000000 -0.000000 -0.000001 -0.000000 
12.268349 77.100227 -0.260728 7.004340 -53.360559 3.884724 0.000000 -0.000002 -0.000000 -31.513390 0.091661 20.115126 24.529436 4.185662 0.825167 8.142155 9.808544 -16.768842 0.000000 0.000002 -0.000000 0.000000 0.000002 -0.000000 0.000001 0.000000 -0.000000 -4.366792 -7.597839 -14.728277 19.519485 -9.842664 -3.184345 -8.292225 -18.791872 23.803932 -0.000000 -0.000000 0.000000 -0.000000 -0.000000 0.000000 -0.000000 -0.000000 -0.000000 2.438090 2.188554 -0.837048 1.812057 3.231550 -0.200110 1.763439 3.272746 -0.302703 3.854083 3.513439 1.647751 -9.215078 24.229944 -11.783512 -0.000000 -0.000000 0.000000 -0.000000 -0.000000 0.000000 -0.000000 -0.000000 0.000000 0.400479 0.087307 -3.534459 -25.645106 6.644149 -46.487729 -0.000108 -100.170946 -0.000106 6.141435 -15.667742 26.154985 1.414168 12.315610 -0.111001 -0.966465 24.316790 1.395910 -0.000001 0.000002 0.000000 6.781445 6.908500 -83.985529 6.728825 6.879531 -88.728146 0.000001 -0.000003 -0.000002 5.692862 6.778317 -80.117231 7.476696 6.855501 -94.976478 0.000003 0.000001 0.000000 5.344479 6.757522 -83.942465 8.136868 6.766201 -100.539107 -0.000000 0.000002 -0.000002 8.174559 7.083491 -83.174424 8.017682 2.700487 -99.510713 -0.000001 0.000001 -0.000000 -0.000000 0.000001 0.000000 0.541215 1.100506 7.101008 26.255592 33.114140 37.534673 0.000049 109.185191 -0.000040 11.213403 0.787752 -31.249410 -3.732739 -8.846175 6.490537 17.294847 -25.325380 -0.358848 -0.000004 -0.000000 0.000001 7.105292 -6.974263 86.153923 6.794381 -6.946523 88.728003 -0.000004 0.000000 0.000002 6.699182 -6.943822 88.026064 8.101392 -6.852329 99.576098 -0.000000 0.000000 -0.000000 5.894432 -6.916529 88.045284 8.096896 -6.853085 99.538690 -0.000002 0.000002 0.000002 4.179027 -6.668980 83.200611 8.101008 -6.852420 99.572677 -0.000001 -0.000002 -0.000000 -0.000001 -0.000000 -0.000000 -0.000000 0.000002 -0.000000 -0.000000 0.000002 -0.000000 -0.000000 0.000002 -0.000000 -0.000000 0.000002 -0.000000 -0.000000 0.000002 -0.000000 -0.000001 -0.000001 0.000001 -0.000000 0.000002 -0.000000 -0.000000 0.000002 -0.000000 -0.000001 -0.000001 0.000001 -0.000000 -0.000000 -0.000000 -0.000000 -0.000000 -0.000000 0.000000 -0.000002 -0.000000 
12.335417 77.140533 -0.274801 7.061737 -53.218256 3.961712 -0.000000 -0.000002 0.000000 -31.525602 0.211728 19.998609 24.200953 4.000984 0.834639 8.338911 9.828540 -16.665778 0.000000 0.000002 -0.000000 0.000000 0.000002 -0.000000 -0.000000 0.000002 -0.000001 -4.375000 -7.631749 -14.769314 19.405254 -9.821322 -3.088623 -8.088091 -19.158903 23.749838 0.000000 -0.000000 -0.000000 0.000000 -0.000000 -0.000000 -0.000002 -0.000000 0.000001 2.430092 2.237548 -0.835343 1.809730 3.303752 -0.191400 1.759561 3.345733 -0.295561 3.837313 3.504879 1.629327 -9.250270 24.153398 -11.744659 -0.000000 0.000000 -0.000000 -0.000000 0.000000 -0.000000 -0.000000 0.000000 -0.000000 0.401628 0.071105 -3.544824 -25.449727 6.395137 -46.511088 0.000265 -100.202604 0.000251 5.974734 -15.600557 26.012958 1.414167 12.315588 -0.111021 -0.966477 24.316793 1.395925 -0.000000 -0.000001 0.000000 6.781437 6.908497 -83.985522 6.728836 6.879526 -88.728187 -0.000002 -0.000004 -0.000003 5.692854 6.778305 -80.117224 7.476686 6.855498 -94.976478 0.000000 -0.000002 0.000002 5.344469 6.757513 -83.942444 8.136863 6.766208 -100.539066 0.000002 -0.000001 -0.000000 8.174549 7.083478 -83.174403 8.017691 2.700482 -99.510713 0.000001 0.000001 -0.000000 0.000002 0.000002 0.000004 0.542319 1.132673 7.127900 25.822772 33.311977 37.728483 0.000040 109.031997 -0.000047 11.450713 0.268132 -31.415855 -3.732746 -8.846150 6.490546 17.294831 -25.325390 -0.358847 0.000002 0.000004 0.000004 7.105295 -6.974243 86.153943 6.794361 -6.946540 88.728010 0.000002 0.000000 -0.000002 6.699188 -6.943799 88.026064 8.101390 -6.852341 99.576098 0.000003 0.000001 -0.000000 5.894442 -6.916521 88.045264 8.096904 -6.853081 99.538696 -0.000006 0.000000 0.000002 4.179042 -6.668981 83.200611 8.101006 -6.852412 99.572663 -0.000003 0.000002 -0.000003 0.000001 -0.000000 -0.000000 -0.000000 -0.000001 -0.000000 -0.000000 -0.000001 -0.000000 -0.000000 -0.000001 -0.000000 -0.000000 -0.000001 -0.000000 -0.000000 -0.000001 0.000000 0.000000 -0.000001 0.000000 -0.000000 -0.000001 -0.000000 -0.000000 -0.000001 0.000000 0.000000 -0.000001 0.000000 0.000001 0.000000 -0.000000 0.000001 0.000000 -0.000000 -0.000000 -0.000002 0.000000 
